<?xml version="1.0" encoding="UTF-8" standalone="no"?>
<!-- Created with Inkscape (http://www.inkscape.org/) -->

<svg
   width="150"
   height="150"
   viewBox="0 0 500 500"
   version="1.1"
   id="svg1122"
   inkscape:version="1.2 (dc2aeda, 2022-05-15)"
   sodipodi:docname="logo.svg"
   xmlns:inkscape="http://www.inkscape.org/namespaces/inkscape"
   xmlns:sodipodi="http://sodipodi.sourceforge.net/DTD/sodipodi-0.dtd"
   xmlns:xlink="http://www.w3.org/1999/xlink"
   xmlns="http://www.w3.org/2000/svg"
   xmlns:svg="http://www.w3.org/2000/svg">
  <sodipodi:namedview
     id="namedview1124"
     pagecolor="#505050"
     bordercolor="#eeeeee"
     borderopacity="1"
     inkscape:showpageshadow="0"
     inkscape:pageopacity="0"
     inkscape:pagecheckerboard="0"
     inkscape:deskcolor="#505050"
     inkscape:document-units="px"
     showgrid="false"
     inkscape:zoom="0.914906"
     inkscape:cx="167.7768"
     inkscape:cy="298.93781"
     inkscape:window-width="1390"
     inkscape:window-height="1205"
     inkscape:window-x="2240"
     inkscape:window-y="25"
     inkscape:window-maximized="0"
     inkscape:current-layer="layer1" />
  <defs
     id="defs1119">
    <linearGradient
       id="gradient"
       gradientUnits="userSpaceOnUse"
       x1="24"
       x2="246"
       y1="238"
       y2="16">
      <stop
         offset="0%"
         stop-color="#0a00b2"
         id="stop125" />
      <stop
         offset="50%"
         stop-color="#ff0000"
         id="stop127" />
      <stop
         offset="100%"
         stop-color="#fffc00"
         id="stop129" />
    </linearGradient>
    <linearGradient
       inkscape:collect="always"
       xlink:href="#gradient"
       id="linearGradient1050"
       gradientUnits="userSpaceOnUse"
       x1="24"
       y1="238"
       x2="246"
       y2="16" />
    <linearGradient
       inkscape:collect="always"
       xlink:href="#gradient"
       id="linearGradient1543"
       gradientUnits="userSpaceOnUse"
       x1="24"
       y1="238"
       x2="246"
       y2="16" />
    <linearGradient
       inkscape:collect="always"
       xlink:href="#gradient"
       id="linearGradient1545"
       gradientUnits="userSpaceOnUse"
       x1="24"
       y1="238"
       x2="246"
       y2="16" />
    <linearGradient
       inkscape:collect="always"
       xlink:href="#gradient"
       id="linearGradient1547"
       gradientUnits="userSpaceOnUse"
       x1="24"
       y1="238"
       x2="246"
       y2="16" />
    <linearGradient
       inkscape:collect="always"
       xlink:href="#gradient"
       id="linearGradient1549"
       gradientUnits="userSpaceOnUse"
       x1="24"
       y1="238"
       x2="246"
       y2="16" />
    <linearGradient
       inkscape:collect="always"
       xlink:href="#gradient"
       id="linearGradient1551"
       gradientUnits="userSpaceOnUse"
       x1="24"
       y1="238"
       x2="246"
       y2="16" />
    <linearGradient
       inkscape:collect="always"
       xlink:href="#gradient"
       id="linearGradient1553"
       gradientUnits="userSpaceOnUse"
       x1="24"
       y1="238"
       x2="246"
       y2="16" />
    <linearGradient
       inkscape:collect="always"
       xlink:href="#gradient"
       id="linearGradient1555"
       gradientUnits="userSpaceOnUse"
       x1="24"
       y1="238"
       x2="246"
       y2="16" />
    <linearGradient
       inkscape:collect="always"
       xlink:href="#gradient"
       id="linearGradient1557"
       gradientUnits="userSpaceOnUse"
       x1="24"
       y1="238"
       x2="246"
       y2="16" />
    <linearGradient
       inkscape:collect="always"
       xlink:href="#gradient"
       id="linearGradient1559"
       gradientUnits="userSpaceOnUse"
       x1="24"
       y1="238"
       x2="246"
       y2="16" />
    <linearGradient
       inkscape:collect="always"
       xlink:href="#gradient"
       id="linearGradient1561"
       gradientUnits="userSpaceOnUse"
       x1="24"
       y1="238"
       x2="246"
       y2="16" />
    <linearGradient
       inkscape:collect="always"
       xlink:href="#gradient"
       id="linearGradient1563"
       gradientUnits="userSpaceOnUse"
       x1="24"
       y1="238"
       x2="246"
       y2="16" />
    <linearGradient
       inkscape:collect="always"
       xlink:href="#gradient"
       id="linearGradient1565"
       gradientUnits="userSpaceOnUse"
       x1="24"
       y1="238"
       x2="246"
       y2="16" />
    <linearGradient
       inkscape:collect="always"
       xlink:href="#gradient"
       id="linearGradient1567"
       gradientUnits="userSpaceOnUse"
       x1="24"
       y1="238"
       x2="246"
       y2="16" />
    <linearGradient
       inkscape:collect="always"
       xlink:href="#gradient"
       id="linearGradient1569"
       gradientUnits="userSpaceOnUse"
       x1="24"
       y1="238"
       x2="246"
       y2="16" />
    <linearGradient
       inkscape:collect="always"
       xlink:href="#gradient"
       id="linearGradient1571"
       gradientUnits="userSpaceOnUse"
       x1="24"
       y1="238"
       x2="246"
       y2="16" />
    <linearGradient
       inkscape:collect="always"
       xlink:href="#gradient"
       id="linearGradient1573"
       gradientUnits="userSpaceOnUse"
       x1="24"
       y1="238"
       x2="246"
       y2="16" />
    <linearGradient
       inkscape:collect="always"
       xlink:href="#gradient"
       id="linearGradient1575"
       gradientUnits="userSpaceOnUse"
       x1="24"
       y1="238"
       x2="246"
       y2="16" />
    <linearGradient
       inkscape:collect="always"
       xlink:href="#gradient"
       id="linearGradient1577"
       gradientUnits="userSpaceOnUse"
       x1="24"
       y1="238"
       x2="246"
       y2="16" />
    <linearGradient
       inkscape:collect="always"
       xlink:href="#gradient"
       id="linearGradient1579"
       gradientUnits="userSpaceOnUse"
       x1="24"
       y1="238"
       x2="246"
       y2="16" />
    <linearGradient
       inkscape:collect="always"
       xlink:href="#gradient"
       id="linearGradient1581"
       gradientUnits="userSpaceOnUse"
       x1="24"
       y1="238"
       x2="246"
       y2="16" />
    <linearGradient
       inkscape:collect="always"
       xlink:href="#gradient"
       id="linearGradient1583"
       gradientUnits="userSpaceOnUse"
       x1="24"
       y1="238"
       x2="246"
       y2="16" />
    <linearGradient
       inkscape:collect="always"
       xlink:href="#gradient"
       id="linearGradient1585"
       gradientUnits="userSpaceOnUse"
       x1="24"
       y1="238"
       x2="246"
       y2="16" />
    <linearGradient
       inkscape:collect="always"
       xlink:href="#gradient"
       id="linearGradient1587"
       gradientUnits="userSpaceOnUse"
       x1="24"
       y1="238"
       x2="246"
       y2="16" />
    <linearGradient
       inkscape:collect="always"
       xlink:href="#gradient"
       id="linearGradient1589"
       gradientUnits="userSpaceOnUse"
       x1="24"
       y1="238"
       x2="246"
       y2="16" />
    <linearGradient
       inkscape:collect="always"
       xlink:href="#gradient"
       id="linearGradient1591"
       gradientUnits="userSpaceOnUse"
       x1="24"
       y1="238"
       x2="246"
       y2="16" />
    <linearGradient
       inkscape:collect="always"
       xlink:href="#gradient"
       id="linearGradient1593"
       gradientUnits="userSpaceOnUse"
       x1="24"
       y1="238"
       x2="246"
       y2="16" />
    <linearGradient
       inkscape:collect="always"
       xlink:href="#gradient"
       id="linearGradient1595"
       gradientUnits="userSpaceOnUse"
       x1="24"
       y1="238"
       x2="246"
       y2="16" />
    <linearGradient
       inkscape:collect="always"
       xlink:href="#gradient"
       id="linearGradient1597"
       gradientUnits="userSpaceOnUse"
       x1="24"
       y1="238"
       x2="246"
       y2="16" />
    <linearGradient
       inkscape:collect="always"
       xlink:href="#gradient"
       id="linearGradient1599"
       gradientUnits="userSpaceOnUse"
       x1="24"
       y1="238"
       x2="246"
       y2="16" />
    <linearGradient
       inkscape:collect="always"
       xlink:href="#gradient"
       id="linearGradient1601"
       gradientUnits="userSpaceOnUse"
       x1="24"
       y1="238"
       x2="246"
       y2="16" />
  </defs>
  <g
     inkscape:label="Layer 1"
     inkscape:groupmode="layer"
     id="layer1">
    <g
       id="g1658"
       transform="matrix(1.3728846,0,0,1.3728846,203.048,0.8644165)">
      <path
         d="m 211.80734,139.0875 c -3.18125,16.36625 -28.4925,34.2775 -57.5625,37.74875 -15.15875,1.80875 -30.08375,3.47125 -45.99875,2.74125 -26.0275,-1.1925 -46.565,-6.2125 -46.565,-6.2125 0,2.53375 0.15625,4.94625 0.46875,7.2025 3.38375,25.68625 25.47,27.225 46.39125,27.9425 21.11625,0.7225 39.91875,-5.20625 39.91875,-5.20625 l 0.8675,19.09 c 0,0 -14.77,7.93125 -41.08125,9.39 -14.50875,0.7975 -32.52375,-0.365 -53.50625,-5.91875 C 9.23234,213.82 1.40609,165.31125 0.20859,116.09125 -0.15641,101.4775 0.06859,87.6975 0.06859,76.1725 0.06859,25.8425 33.04484,11.09 33.04484,11.09 49.67234,3.45375 78.20359,0.2425 107.86484,0 h 0.72875 c 29.66125,0.2425 58.21125,3.45375 74.8375,11.09 0,0 32.975,14.7525 32.975,65.0825 0,0 0.41375,37.13375 -4.59875,62.915"
         fill="#3088d4"
         id="path358" />
      <path
         d="m 177.50984,80.077 v 60.94125 h -24.14375 v -59.15 c 0,-12.46875 -5.24625,-18.7975 -15.74,-18.7975 -11.6025,0 -17.4175,7.5075 -17.4175,22.3525 V 117.7995 H 96.20734 V 85.42325 c 0,-14.845 -5.81625,-22.3525 -17.41875,-22.3525 -10.49375,0 -15.74,6.32875 -15.74,18.7975 v 59.15 H 38.90484 V 80.077 c 0,-12.455 3.17125,-22.3525 9.54125,-29.675 6.56875,-7.3225 15.17125,-11.07625 25.85,-11.07625 12.355,0 21.71125,4.74875 27.8975,14.2475 l 6.01375,10.08125 6.015,-10.08125 c 6.185,-9.49875 15.54125,-14.2475 27.8975,-14.2475 10.6775,0 19.28,3.75375 25.85,11.07625 6.36875,7.3225 9.54,17.22 9.54,29.675"
         fill="#ffffff"
         id="path360" />
    </g>
    <g
       id="petals"
       class="petals"
       style="fill:url(#linearGradient1050)"
       transform="matrix(1.4396238,0,0,1.4396238,-34.520273,157.6176)">
      <path
         class="petal"
         d="m 103.283,45.02 c -0.647,8.246 0.645,16.05 5.16,23.1 a 23.041,23.041 0 0 0 13.04,9.63 5.672,5.672 0 0 0 4.719,-1.153 c 6.093,-5.8 9.031,-12.89 8,-21.625 -1.829,-15.522 -11.06,-26.108 -22.808,-36.2 -4.568,8.766 -7.394,17.145 -8.111,26.248 z"
         id="path137"
         style="opacity:0.65;fill:url(#linearGradient1543)" />
      <path
         class="petal"
         d="m 86.913,53.254 c 1.081,8.2 3.968,15.565 9.849,21.519 a 23.04,23.04 0 0 0 14.757,6.709 5.673,5.673 0 0 0 4.376,-2.109 c 4.754,-6.944 6.154,-14.486 3.331,-22.816 C 114.21,41.757 102.98,33.319 89.39,25.889 86.743,35.417 85.719,44.2 86.913,53.254 Z"
         id="path139"
         style="opacity:0.65;fill:url(#linearGradient1545)" />
      <path
         class="petal"
         d="m 72.611,64.711 c 2.762,7.8 7.117,14.4 14.108,19 a 23.04,23.04 0 0 0 15.83,3.494 5.673,5.673 0 0 0 3.842,-2.973 c 3.206,-7.78 3.007,-15.449 -1.486,-23.01 C 96.921,47.786 84.183,41.87 69.345,37.429 68.737,47.3 69.561,56.1 72.611,64.711 Z"
         id="path141"
         style="opacity:0.65;fill:url(#linearGradient1547)" />
      <path
         class="petal"
         d="m 61,78.891 c 4.323,7.052 9.955,12.605 17.75,15.653 A 23.04,23.04 0 0 0 94.96,94.67 5.671,5.671 0 0 0 98.1,90.963 C 99.619,82.686 97.83,75.226 91.863,68.763 81.263,57.28 67.57,54.142 52.133,52.882 53.595,62.666 56.232,71.107 61,78.891 Z"
         id="path143"
         style="opacity:0.65;fill:url(#linearGradient1549)" />
      <path
         class="petal"
         d="m 52.6,95.174 c 5.694,6 12.358,10.26 20.617,11.62 A 23.038,23.038 0 0 0 89.1,103.548 5.673,5.673 0 0 0 91.4,99.269 C 91.165,90.857 87.864,83.932 80.684,78.853 67.925,69.825 53.884,69.602 38.52,71.579 c 3.459,9.265 7.793,16.973 14.08,23.595 z"
         id="path145"
         style="opacity:0.65;fill:url(#linearGradient1551)" />
      <path
         class="petal"
         d="m 47.764,112.849 c 6.817,4.684 14.222,7.467 22.582,7.08 a 23.035,23.035 0 0 0 14.86,-6.478 5.671,5.671 0 0 0 1.36,-4.663 C 84.587,100.609 79.919,94.522 71.839,91.046 57.483,84.868 43.7,87.57 29.086,92.7 c 5.314,8.341 11.152,14.979 18.678,20.149 z"
         id="path147"
         style="opacity:0.65;fill:url(#linearGradient1553)" />
      <path
         class="petal"
         d="m 46.709,131.144 c 7.642,3.164 15.463,4.346 23.561,2.23 a 23.043,23.043 0 0 0 13.189,-9.426 5.671,5.671 0 0 0 0.361,-4.844 c -3.636,-7.589 -9.468,-12.573 -18.094,-14.293 -15.328,-3.058 -28.248,2.45 -41.477,10.5 6.929,7.062 14.024,12.34 22.46,15.833 z"
         id="path149"
         style="opacity:0.65;fill:url(#linearGradient1555)" />
      <path
         class="petal"
         d="m 49.481,149.257 c 8.133,1.506 16.029,1.037 23.509,-2.717 a 23.041,23.041 0 0 0 10.941,-11.962 5.67,5.67 0 0 0 -0.654,-4.813 c -5.135,-6.667 -11.876,-10.33 -20.67,-10.219 -15.629,0.2 -27.121,8.27 -38.386,18.9 8.244,5.461 16.279,9.154 25.26,10.811 z"
         id="path151"
         style="opacity:0.65;fill:url(#linearGradient1557)" />
      <path
         class="petal"
         d="m 55.958,166.4 c 8.268,-0.218 15.894,-2.319 22.431,-7.546 a 23.037,23.037 0 0 0 8.211,-13.976 5.67,5.67 0 0 0 -1.64,-4.572 c -6.409,-5.454 -13.764,-7.635 -22.343,-5.7 -15.243,3.443 -24.806,13.73 -33.617,26.469 9.2,3.625 17.83,5.565 26.958,5.325 z"
         id="path153"
         style="opacity:0.65;fill:url(#linearGradient1559)" />
      <path
         class="petal"
         d="m 65.857,181.82 c 8.042,-1.933 15.065,-5.573 20.372,-12.045 a 23.039,23.039 0 0 0 5.129,-15.375 5.672,5.672 0 0 0 -2.555,-4.131 c -7.4,-4 -15.05,-4.606 -23.039,-0.928 -14.2,6.536 -21.413,18.586 -27.381,32.878 9.754,1.634 18.596,1.734 27.474,-0.399 z"
         id="path155"
         style="opacity:0.65;fill:url(#linearGradient1561)" />
      <path
         class="petal"
         d="m 78.747,194.845 c 7.465,-3.562 13.577,-8.583 17.422,-16.017 a 23.039,23.039 0 0 0 1.82,-16.108 5.671,5.671 0 0 0 -3.358,-3.51 c -8.073,-2.375 -15.679,-1.376 -22.728,3.883 -12.529,9.344 -17.08,22.631 -19.947,37.852 9.88,-0.427 18.55,-2.167 26.791,-6.1 z"
         id="path157"
         style="opacity:0.65;fill:url(#linearGradient1563)" />
      <path
         class="petal"
         d="m 94.062,204.906 c 6.561,-5.036 11.5,-11.219 13.712,-19.289 a 23.042,23.042 0 0 0 -1.569,-16.135 5.67,5.67 0 0 0 -4.014,-2.735 c -8.391,-0.645 -15.623,1.914 -21.425,8.523 -10.312,11.746 -12,25.689 -11.641,41.173 9.575,-2.472 17.695,-5.977 24.937,-11.537 z"
         id="path159"
         style="opacity:0.65;fill:url(#linearGradient1565)" />
      <path
         class="petal"
         d="m 111.135,211.562 c 5.371,-6.29 8.912,-13.363 9.4,-21.718 a 23.035,23.035 0 0 0 -4.89,-15.456 5.666,5.666 0 0 0 -4.5,-1.84 c -8.341,1.113 -14.883,5.119 -19.184,12.791 -7.644,13.633 -6.4,27.622 -2.826,42.693 8.859,-4.409 16.072,-9.525 22,-16.47 z"
         id="path161"
         style="opacity:0.65;fill:url(#linearGradient1567)" />
      <path
         class="petal"
         d="m 129.219,214.524 c 3.945,-7.27 5.939,-14.924 4.68,-23.2 a 23.038,23.038 0 0 0 -8,-14.1 5.674,5.674 0 0 0 -4.78,-0.866 c -7.927,2.823 -13.494,8.1 -16.106,16.5 -4.643,14.924 -0.516,28.349 6.112,42.348 7.747,-6.153 13.739,-12.657 18.094,-20.682 z"
         id="path163"
         style="opacity:0.65;fill:url(#linearGradient1569)" />
      <path
         class="petal"
         d="m 147.523,213.661 c 2.348,-7.931 2.706,-15.833 -0.245,-23.665 a 23.042,23.042 0 0 0 -10.753,-12.131 5.671,5.671 0 0 0 -4.855,0.147 c -7.167,4.41 -11.514,10.731 -12.323,19.489 -1.439,15.563 5.389,27.837 14.783,40.152 6.294,-7.629 10.802,-15.237 13.393,-23.992 z"
         id="path165"
         style="opacity:0.65;fill:url(#linearGradient1571)" />
      <path
         class="petal"
         d="m 165.248,209.011 c 0.648,-8.246 -0.645,-16.049 -5.16,-23.1 a 23.038,23.038 0 0 0 -13.04,-9.631 5.67,5.67 0 0 0 -4.719,1.154 c -6.093,5.8 -9.031,12.89 -8,21.624 1.829,15.523 11.06,26.108 22.808,36.2 4.569,-8.765 7.397,-17.144 8.111,-26.247 z"
         id="path167"
         style="opacity:0.65;fill:url(#linearGradient1573)" />
      <path
         class="petal"
         d="m 181.619,200.778 c -1.081,-8.2 -3.968,-15.565 -9.849,-21.519 a 23.043,23.043 0 0 0 -14.758,-6.709 5.669,5.669 0 0 0 -4.375,2.109 c -4.754,6.944 -6.155,14.486 -3.331,22.816 5.015,14.8 16.245,23.238 29.835,30.668 2.648,-9.529 3.672,-18.313 2.478,-27.365 z"
         id="path169"
         style="opacity:0.65;fill:url(#linearGradient1575)" />
      <path
         class="petal"
         d="m 195.92,189.321 c -2.762,-7.8 -7.117,-14.4 -14.108,-19 a 23.04,23.04 0 0 0 -15.83,-3.494 5.668,5.668 0 0 0 -3.841,2.972 c -3.207,7.781 -3.008,15.45 1.485,23.01 7.984,13.437 20.723,19.353 35.56,23.8 0.608,-9.877 -0.216,-18.682 -3.266,-27.288 z"
         id="path171"
         style="opacity:0.65;fill:url(#linearGradient1577)" />
      <path
         class="petal"
         d="m 207.527,175.14 c -4.323,-7.051 -9.956,-12.6 -17.751,-15.652 a 23.039,23.039 0 0 0 -16.21,-0.127 5.672,5.672 0 0 0 -3.139,3.707 c -1.519,8.277 0.27,15.737 6.237,22.2 10.6,11.483 24.293,14.622 39.73,15.881 -1.458,-9.783 -4.094,-18.224 -8.867,-26.009 z"
         id="path173"
         style="opacity:0.65;fill:url(#linearGradient1579)" />
      <path
         class="petal"
         d="m 215.931,158.857 c -5.694,-6 -12.358,-10.26 -20.616,-11.62 a 23.04,23.04 0 0 0 -15.883,3.247 5.669,5.669 0 0 0 -2.3,4.278 c 0.236,8.412 3.536,15.337 10.716,20.416 12.759,9.028 26.8,9.251 42.164,7.274 -3.459,-9.265 -7.794,-16.973 -14.081,-23.595 z"
         id="path175"
         style="opacity:0.65;fill:url(#linearGradient1581)" />
      <path
         class="petal"
         d="m 220.767,141.182 c -6.817,-4.684 -14.222,-7.467 -22.582,-7.08 a 23.039,23.039 0 0 0 -14.86,6.478 5.671,5.671 0 0 0 -1.361,4.663 c 1.979,8.179 6.648,14.267 14.727,17.742 14.357,6.178 28.14,3.477 42.755,-1.651 -5.311,-8.344 -11.153,-14.982 -18.679,-20.152 z"
         id="path177"
         style="opacity:0.65;fill:url(#linearGradient1583)" />
      <path
         class="petal"
         d="m 221.822,122.888 c -7.642,-3.164 -15.463,-4.347 -23.561,-2.23 a 23.031,23.031 0 0 0 -13.188,9.426 5.668,5.668 0 0 0 -0.361,4.844 c 3.636,7.588 9.468,12.573 18.093,14.292 15.328,3.058 28.248,-2.45 41.477,-10.5 -6.928,-7.061 -14.023,-12.34 -22.46,-15.832 z"
         id="path179"
         style="opacity:0.65;fill:url(#linearGradient1585)" />
      <path
         class="petal"
         d="m 219.05,104.774 c -8.132,-1.506 -16.028,-1.037 -23.509,2.717 a 23.042,23.042 0 0 0 -10.941,11.962 5.673,5.673 0 0 0 0.654,4.814 c 5.135,6.666 11.876,10.329 20.67,10.218 15.629,-0.2 27.121,-8.27 38.387,-18.9 -8.245,-5.461 -16.282,-9.149 -25.261,-10.811 z"
         id="path181"
         style="opacity:0.65;fill:url(#linearGradient1587)" />
      <path
         class="petal"
         d="m 212.573,87.632 c -8.268,0.218 -15.894,2.319 -22.43,7.546 a 23.038,23.038 0 0 0 -8.215,13.975 5.672,5.672 0 0 0 1.64,4.572 c 6.409,5.454 13.764,7.635 22.343,5.7 15.246,-3.441 24.809,-13.728 33.619,-26.467 -9.2,-3.63 -17.83,-5.567 -26.957,-5.326 z"
         id="path183"
         style="opacity:0.65;fill:url(#linearGradient1589)" />
      <path
         class="petal"
         d="m 202.674,72.212 c -8.042,1.932 -15.065,5.573 -20.372,12.045 a 23.036,23.036 0 0 0 -5.129,15.378 5.67,5.67 0 0 0 2.555,4.131 c 7.4,4 15.05,4.606 23.039,0.928 14.2,-6.536 21.413,-18.586 27.381,-32.878 -9.748,-1.638 -18.596,-1.738 -27.474,0.396 z"
         id="path185"
         style="opacity:0.65;fill:url(#linearGradient1591)" />
      <path
         class="petal"
         d="m 189.785,59.186 c -7.465,3.562 -13.577,8.583 -17.423,16.017 a 23.039,23.039 0 0 0 -1.82,16.108 5.672,5.672 0 0 0 3.358,3.51 c 8.073,2.376 15.679,1.376 22.729,-3.883 12.528,-9.345 17.08,-22.632 19.947,-37.853 -9.876,0.428 -18.551,2.169 -26.791,6.101 z"
         id="path187"
         style="opacity:0.65;fill:url(#linearGradient1593)" />
      <path
         class="petal"
         d="m 174.469,49.126 c -6.561,5.036 -11.5,11.218 -13.712,19.289 a 23.046,23.046 0 0 0 1.569,16.135 5.673,5.673 0 0 0 4.015,2.735 c 8.39,0.645 15.622,-1.913 21.424,-8.523 10.312,-11.745 12,-25.688 11.641,-41.173 -9.575,2.471 -17.694,5.976 -24.937,11.537 z"
         id="path189"
         style="opacity:0.65;fill:url(#linearGradient1595)" />
      <path
         class="petal"
         d="m 157.4,42.469 c -5.371,6.29 -8.912,13.363 -9.4,21.718 a 23.041,23.041 0 0 0 4.889,15.456 5.671,5.671 0 0 0 4.5,1.84 c 8.341,-1.113 14.883,-5.12 19.185,-12.791 7.644,-13.633 6.4,-27.622 2.826,-42.693 -8.863,4.409 -16.075,9.525 -22,16.47 z"
         id="path191"
         style="opacity:0.65;fill:url(#linearGradient1597)" />
      <path
         class="petal"
         d="m 139.312,39.507 c -3.945,7.27 -5.939,14.924 -4.68,23.2 a 23.035,23.035 0 0 0 8,14.1 5.67,5.67 0 0 0 4.779,0.865 c 7.928,-2.823 13.494,-8.1 16.106,-16.5 4.643,-14.924 0.516,-28.349 -6.112,-42.348 -7.746,6.154 -13.738,12.658 -18.093,20.683 z"
         id="path193"
         style="opacity:0.65;fill:url(#linearGradient1599)" />
      <path
         class="petal"
         d="m 121.008,40.37 c -2.348,7.931 -2.706,15.833 0.245,23.665 a 23.042,23.042 0 0 0 10.753,12.131 5.671,5.671 0 0 0 4.855,-0.147 c 7.167,-4.41 11.515,-10.731 12.323,-19.489 1.439,-15.563 -5.389,-27.837 -14.782,-40.152 -6.294,7.629 -10.802,15.237 -13.394,23.992 z"
         id="path195"
         style="opacity:0.65;fill:url(#linearGradient1601)" />
    </g>
  </g>
</svg>
